<svg
  xmlns="http://www.w3.org/2000/svg"
  id="prefix__Layer_1"
  width="792"
  height="360"  
  view-box="0 0 792 360"
  enable-background="new 0 0 792 360"
  xml-space="preserve"
>
  <style>
    .prefix__st0 {
      fill: #fff;
    }
    .prefix__st2 {
      fill: #fffffe;
    }
  </style>
  <path
    class="prefix__st0"
    d="M178.8 360C80.1 360 .1 279.4.1 180S80.1 0 178.8 0h434.7c98.7 0 178.7 80.6 178.7 180s-80 180-178.7 180H178.8z"
  />
  <path
    d="M181.8 344.2c-90.5 0-163.9-73.9-163.9-165.1C17.9 87.9 91.3 14 181.8 14h428.6c90.5 0 163.9 73.9 163.9 165.1 0 91.2-73.4 165.1-163.9 165.1H181.8z"
    style="fill: #732282"
  />
  <path
    class="prefix__st0"
    d="M138.3 142.2c3.9 0 7.7 1.2 10.8 3.6l7.8-10.4c-5.4-4-11.8-6.2-18.6-6.2-17.1 0-31.1 13.9-31.1 31.1 0 17.1 13.9 31.1 31.1 31.1 6.6 0 12.8-2 18.1-5.8l-7.6-10.6c-3.1 2.2-6.7 3.4-10.5 3.4-10 0-18.1-8.1-18.1-18.1 0-10 8.1-18.1 18.1-18.1zM272.7 178.4c-10 0-18.1-8.1-18.1-18.1 0-10 8.1-18.1 18.1-18.1 3.9 0 7.7 1.2 10.8 3.6l7.8-10.4c-5.4-4-11.8-6.2-18.6-6.2-17.1 0-31.1 13.9-31.1 31.1 0 17.1 14 31.1 31.1 31.1 6.5 0 12.8-2 18.1-5.8l-7.6-10.6c-3.1 2.2-6.7 3.4-10.5 3.4zM221.4 190.9h13v-50.1c0-1.7-.5-5.3-4.5-7.4-3.9-2.2-8.5-1.8-8.5-1.8v59.3zM198.8 130.2c-3-1-6.2-1.5-9.4-1.5-17.1 0-31.1 14-31.1 31.1s13.9 31.1 31.1 31.1c3.6 0 8.9-.1 12-.1h10.4v-84.3s-5.5-.6-9.4 2.1c-3.9 2.7-3.6 8.8-3.6 8.8v12.8zm-27.5 29.6c0-10 8.1-18.1 18.1-18.1 3.4 0 6.6.9 9.4 2.6v33.5c-3 0-6.7.1-9.4.1-10 0-18.1-8.1-18.1-18.1zM539.8 159.9c-4.9-4.1-12.8-6.6-13.7-6.9-2.4-.7-7-2.6-9-4.3-.4-.4-2.3-2.2-1.5-5.2 1-1.9 1.8-2.5 8.1-2.5 10.7 0 19.8.1 19.8.1l.1-13h-19.8c-12.4 0-16.6 3.5-20 10l-.4.9c-2.9 8.5.8 15.8 5.1 19.6 4.9 4.1 12.8 6.6 13.7 6.9 2.4.7 7 2.6 9 4.3.4.4 2.3 2.2 1.4 5.2-1 1.9-1.8 2.5-8.1 2.5-10.7 0-19.8-.1-19.8-.1l-.1 13h19.8c12.4 0 16.6-3.5 19.9-10l.4-.9c3.1-8.5-.6-15.9-4.9-19.6zM649.2 129c-3-1-6.2-1.5-9.4-1.5-17.2 0-31.1 14-31.1 31.1s14 31.1 31.1 31.1c3.6 0 8.9-.1 12-.1h10.4v-84.3s-5.5-.6-9.4 2.1c-3.9 2.7-3.6 8.8-3.6 8.8V129zm-27.5 29.6c0-10 8.1-18.1 18.1-18.1 3.4 0 6.6.9 9.4 2.6v33.5c-2.9 0-6.7.1-9.4.1-10 0-18.1-8.1-18.1-18.1zM580.4 127.9c-17.1 0-31.1 13.9-31.1 31.1s14 31.1 31.1 31.1c3.2 0 6.6-1 9.4-3.1v3h13v-49.7s.1-4.7-3.2-8.5c-3.4-3.8-9.8-3.8-9.8-3.8s-6.6-.1-9.4-.1zm0 49.2c-10 0-18.1-8.1-18.1-18.1 0-10 8.1-18.1 18.1-18.1 2.8 0 6.5 0 9.4.1v31.8c-2.9 3-6 4.3-9.4 4.3zM699.1 176.8c-10 0-18.1-8.1-18.1-18.1 0-10 8.1-18.1 18.1-18.1 3.9 0 7.7 1.2 10.8 3.6l7.8-10.4c-5.4-4-11.8-6.2-18.6-6.2-17.1 0-31.1 13.9-31.1 31.1 0 17.1 14 31.1 31.1 31.1 6.6 0 12.8-2 18.1-5.8l-7.6-10.6c-3 2.2-6.7 3.4-10.5 3.4z"
  />
  <path
    class="prefix__st2"
    d="M509.6 217.4h-1.8v7.6h-4v-20.7h6.1c4.7 0 7.6 2.2 7.6 6.4.1 4.5-3.1 6.7-7.9 6.7zm.2-9.9h-1.9v6.7h1.7c2.5 0 4-1 4-3.4.1-2.2-1.3-3.3-3.8-3.3zM531.4 225.2l-5.5-8.1h-1.7v7.9h-4v-20.7h6.4c4.6 0 7.4 2.2 7.4 6.2 0 3-1.6 4.9-4.2 5.8l5.6 8.1-4 .8zm-5-17.7h-2.2v6.6h2c2.5 0 4-1.2 4-3.3 0-2.1-1.3-3.3-3.8-3.3zM546.4 225.4c-5.9 0-9.7-4.3-9.7-10.7 0-6.4 3.8-10.8 9.8-10.8 5.9 0 9.7 4.3 9.7 10.7s-3.9 10.8-9.8 10.8zm0-18.2c-3.5 0-5.7 2.9-5.7 7.4s2.1 7.4 5.7 7.4 5.7-2.9 5.7-7.4-2.1-7.4-5.7-7.4zM567.9 207.8V225h-4v-17.3h-6.2v-3.4h16.1l.6 3.4h-6.5zM577 225v-20.7h12v3.4h-8.1v4.9h6.2l.5 3.3h-6.8v5.7h8.4v3.4H577zM601.1 225.4c-6 0-9.8-4.3-9.8-10.7 0-6.4 3.9-10.7 9.8-10.7 2.4 0 4.3.6 5.8 1.5l-.6 3.8c-1.3-1-3-1.8-5-1.8-3.7 0-5.9 2.8-5.9 7.3 0 4.6 2.4 7.3 6.1 7.3 1.9 0 3.7-.7 5.3-1.7l.5 3.4c-1.7.9-3.8 1.6-6.2 1.6zM619.6 207.8V225h-4v-17.3h-6.2v-3.4h16.1l.6 3.4h-6.5zM628.8 225v-20.7h4V225h-4zM646 225.4c-5.9 0-9.7-4.3-9.7-10.7 0-6.4 3.8-10.8 9.8-10.8 5.9 0 9.7 4.3 9.7 10.7s-3.9 10.8-9.8 10.8zm0-18.2c-3.5 0-5.7 2.9-5.7 7.4s2.1 7.4 5.7 7.4 5.7-2.9 5.7-7.4-2.2-7.4-5.7-7.4zM672.7 225l-9.7-14.3V225h-3.7v-20.7h3.8l9.3 13.6v-13.6h3.7V225h-3.4zM510.5 259.1h-6.6v-20.7h6.6c7.2 0 10.9 4.2 10.9 10.3 0 6.2-3.9 10.4-10.9 10.4zm0-17.4h-2.6v14.2h2.5c4.3 0 7-2.2 7-7.1 0-4.8-2.8-7.1-6.9-7.1zM524.8 259.1v-20.7h12v3.4h-8.1v4.9h6.2l.5 3.3h-6.8v5.7h8.4v3.4h-12.2zM546 259.4c-2.5 0-4.7-.6-6.5-1.4l.6-3.6c1.7 1 3.9 1.8 6 1.8 1.8 0 3.1-.9 3.1-2.5 0-1.5-.7-2.2-3.7-3.5-4-1.6-5.6-3-5.6-6.2 0-3.7 2.8-5.8 6.7-5.8 2.3 0 4 .5 5.5 1.3l-.6 3.6c-1.5-1-3.3-1.6-4.9-1.6-2 0-2.8 1-2.8 2.2 0 1.3.7 2 3.5 3.1 4.3 1.7 5.8 3.2 5.8 6.4-.1 4.1-3.1 6.2-7.1 6.2zM569.4 259.1h-6.6v-20.7h6.6c7.2 0 10.9 4.2 10.9 10.3 0 6.2-3.9 10.4-10.9 10.4zm0-17.4h-2.6v14.2h2.5c4.3 0 7-2.2 7-7.1 0-4.8-2.8-7.1-6.9-7.1zM583.7 259.1v-20.7h12v3.4h-8.1v4.9h6.2l.5 3.3h-6.8v5.7h8.4v3.4h-12.2zm7-22.4h-2.4l2.2-4.5 4.4.8-4.2 3.7zM605.1 251.5h-1.8v7.6h-4v-20.7h6.1c4.7 0 7.6 2.2 7.6 6.4 0 4.4-3.1 6.7-7.9 6.7zm.1-9.9h-1.9v6.7h1.7c2.5 0 4-1.1 4-3.4.1-2.2-1.2-3.3-3.8-3.3zM624.9 259.5c-5.9 0-9.7-4.3-9.7-10.7 0-6.4 3.8-10.8 9.8-10.8 5.9 0 9.7 4.3 9.7 10.7s-3.9 10.8-9.8 10.8zm0-18.2c-3.5 0-5.7 2.9-5.7 7.4s2.1 7.4 5.7 7.4 5.7-2.9 5.7-7.4-2.1-7.4-5.7-7.4zm2.4-4.9-2.4-2-2.4 2h-2.3l3-4.3h3.4l3 4.3h-2.3zM646.4 241.9v17.2h-4v-17.2h-6.2v-3.5h16.1l.6 3.5h-6.5zM661.3 259.4c-2.5 0-4.7-.6-6.5-1.4l.6-3.6c1.7 1 3.9 1.8 6 1.8 1.8 0 3.1-.9 3.1-2.5 0-1.5-.7-2.2-3.7-3.5-4-1.6-5.6-3-5.6-6.2 0-3.7 2.8-5.8 6.7-5.8 2.3 0 4 .5 5.5 1.3l-.6 3.6c-1.5-1-3.3-1.6-4.9-1.6-2 0-2.8 1-2.8 2.2 0 1.3.7 2 3.5 3.1 4.3 1.7 5.8 3.2 5.8 6.4-.1 4.1-3.1 6.2-7.1 6.2zM180.2 225h-6.6v-20.7h6.6c7.2 0 10.9 4.2 10.9 10.3 0 6.2-3.9 10.4-10.9 10.4zm-.1-17.4h-2.6v14.2h2.5c4.4 0 7-2.2 7-7.1 0-4.8-2.7-7.1-6.9-7.1zM194.5 225v-20.7h12v3.4h-8.1v4.9h6.2l.5 3.3h-6.8v5.7h8.4v3.4h-12.2zM215.9 217.4h-1.8v7.6h-4v-20.7h6.1c4.7 0 7.6 2.2 7.6 6.4 0 4.5-3.2 6.7-7.9 6.7zm.1-9.9h-1.9v6.7h1.7c2.5 0 4-1 4-3.4.1-2.2-1.2-3.3-3.8-3.3zM235.7 225.4c-5.9 0-9.7-4.3-9.7-10.7 0-6.4 3.8-10.8 9.8-10.8 5.9 0 9.7 4.3 9.7 10.7s-3.9 10.8-9.8 10.8zm0-18.2c-3.5 0-5.7 2.9-5.7 7.4s2.1 7.4 5.7 7.4 5.7-2.9 5.7-7.4-2.2-7.4-5.7-7.4zM254.2 225.3c-2.5 0-4.7-.6-6.5-1.4l.6-3.6c1.7 1 3.9 1.8 6 1.8 1.8 0 3.1-.9 3.1-2.5 0-1.5-.7-2.2-3.7-3.5-4-1.6-5.6-3-5.6-6.2 0-3.7 2.8-5.8 6.7-5.8 2.3 0 4 .5 5.5 1.3l-.6 3.6c-1.5-1-3.3-1.6-4.9-1.6-2 0-2.9 1-2.9 2.2 0 1.3.7 2 3.5 3.1 4.3 1.7 5.8 3.2 5.8 6.4 0 4.1-3 6.2-7 6.2zM264.6 225v-20.7h4V225h-4zM281.5 207.8V225h-4v-17.3h-6.2v-3.4h16.1l.6 3.4h-6.5zM120.1 249.2h-1.8v7.6h-4v-20.7h6.1c4.7 0 7.6 2.2 7.6 6.4 0 4.5-3.2 6.7-7.9 6.7zm.1-9.9h-1.9v6.7h1.7c2.5 0 4-1.1 4-3.4.1-2.2-1.2-3.3-3.8-3.3zM141.8 257.1l-5.5-8.1h-1.7v7.9h-4v-20.7h6.4c4.6 0 7.4 2.2 7.4 6.2 0 3-1.6 4.9-4.2 5.8l5.6 8.1-4 .8zm-5-17.8h-2.2v6.6h2c2.5 0 4-1.2 4-3.3 0-2.1-1.3-3.3-3.8-3.3zM156.9 257.2c-5.9 0-9.7-4.3-9.7-10.7 0-6.4 3.8-10.8 9.8-10.8 5.9 0 9.7 4.3 9.7 10.7s-3.9 10.8-9.8 10.8zm0-18.1c-3.5 0-5.7 2.9-5.7 7.4s2.1 7.4 5.7 7.4 5.7-2.9 5.7-7.4-2.2-7.4-5.7-7.4zM178.3 239.6v17.2h-4v-17.2h-6.2v-3.5h16.1l.6 3.5h-6.5zM187.4 256.9v-20.7h12v3.4h-8.1v4.9h6.2l.5 3.3h-6.8v5.7h8.4v3.4h-12.2zM211.6 257.2c-6 0-9.8-4.3-9.8-10.7 0-6.4 3.9-10.7 9.8-10.7 2.4 0 4.3.6 5.8 1.5l-.6 3.8c-1.4-1-3-1.8-5-1.8-3.7 0-5.9 2.8-5.9 7.3 0 4.6 2.4 7.3 6.1 7.3 1.9 0 3.7-.7 5.3-1.7l.5 3.4c-1.8.9-3.9 1.6-6.2 1.6zM230.1 239.6v17.2h-4v-17.2h-6.2v-3.5H236l.6 3.5h-6.5zM239.2 256.9v-20.7h4v20.7h-4zM256.4 257.2c-5.9 0-9.7-4.3-9.7-10.7 0-6.4 3.8-10.8 9.8-10.8 5.9 0 9.7 4.3 9.7 10.7s-3.8 10.8-9.8 10.8zm.1-18.1c-3.5 0-5.7 2.9-5.7 7.4s2.1 7.4 5.7 7.4 5.7-2.9 5.7-7.4-2.2-7.4-5.7-7.4zM283.1 256.9l-9.7-14.2v14.2h-3.7v-20.7h3.8l9.3 13.6v-13.6h3.7v20.7h-3.4z"
  />
  <path
    class="prefix__st0"
    d="M446 105.6c-.3-27.2-22.7-49.3-50-49.3-27.1 0-49.5 22.1-49.9 49.4v29.2l2.4-1.5c7.2-4.6 15.1-8.1 23.3-10.4l1.1-.3V106c.2-12.5 10.6-22.8 23.1-22.8 12.6 0 23 10.2 23.1 23.1v16.4l1.1.3c8.2 2.3 16 5.8 23.3 10.4l2.4 1.5V132c.2-17.4.2-24.5.1-26.4z"
  />
  <path
    class="prefix__st0"
    d="M396.1 129.2c-43.7 0-79.2 35.5-79.2 79.2s35.5 79.2 79.2 79.2c43.8 0 79.2-35.5 79.2-79.2s-35.4-79.2-79.2-79.2zm27.2 101.3c-3.9 2.8-.9 9.9-.1 13.8-7.7-1.1-15.3-3.1-23.1-3.2-5-.1-1.1 13.2-1.1 27.2-1.4.6-4.5.5-5.7 0 0-12.4 3.9-27.3-1.1-27.2-7.8.1-15.5 2.2-23.2 3.2 1.6-8.1 2.8-11.5-3.7-16.7-6.5-5.3-13-10.5-19.5-15.8 10.3-3.6 4.5-12.6 2.3-20.8 3.4.7 9.2 3.3 12.6 2.6 4.6 1.5 4.9-4.6 5.6-7.5l9.6 10.8c1.6 1.8 6.2 4.8 5.3-.1-1.6-8.7-3.2-17.4-4.8-26 2.9 1.5 8.7 6.1 11.2 2.3 2.9-4.4 5.7-8.8 8.6-13.2 2.8 4.4 5.7 8.8 8.5 13.2 2.5 3.8 8.3-.8 11.2-2.3-1.6 8.7-3.2 17.4-4.8 26-1.1 6.2 5.2.2 6.5-1.2 2.8-3.2 5.6-6.3 8.4-9.5 1.1 3.8 1 8.5 6.1 7.4 4.1-.8 8.1-1.7 12.2-2.5-2.2 8.2-8 17.3 2.3 20.8-7.9 6.2-15.6 12.4-23.3 18.7z"
  />
</svg>
